<svg xmlns="http://www.w3.org/2000/svg" viewBox="0 0 128 128">
  <defs>
    <linearGradient id="bg" x1="0%" y1="0%" x2="100%" y2="100%">
      <stop offset="0%" stop-color="#eef1f5"/><stop offset="100%" stop-color="#dde3eb"/>
    </linearGradient>
  </defs>
  <!-- Background -->
  <rect width="128" height="128" rx="20" fill="url(#bg)"/>
  <!-- Ground line -->
  <rect x="8" y="112" width="112" height="4" rx="2" fill="#1a3a5c"/>
  <!-- Crane tower (left) -->
  <rect x="22" y="18" width="6" height="94" fill="#1a3a5c"/>
  <polygon points="20,18 28,18 25,10 23,10" fill="#1a3a5c"/>
  <!-- Crane lattice -->
  <line x1="22" y1="30" x2="28" y2="42" stroke="#1a3a5c" stroke-width="1.5"/>
  <line x1="28" y1="30" x2="22" y2="42" stroke="#1a3a5c" stroke-width="1.5"/>
  <line x1="22" y1="42" x2="28" y2="54" stroke="#1a3a5c" stroke-width="1.5"/>
  <line x1="28" y1="42" x2="22" y2="54" stroke="#1a3a5c" stroke-width="1.5"/>
  <line x1="22" y1="54" x2="28" y2="66" stroke="#1a3a5c" stroke-width="1.5"/>
  <line x1="28" y1="54" x2="22" y2="66" stroke="#1a3a5c" stroke-width="1.5"/>
  <line x1="22" y1="66" x2="28" y2="78" stroke="#1a3a5c" stroke-width="1.5"/>
  <line x1="28" y1="66" x2="22" y2="78" stroke="#1a3a5c" stroke-width="1.5"/>
  <line x1="22" y1="78" x2="28" y2="90" stroke="#1a3a5c" stroke-width="1.5"/>
  <line x1="28" y1="78" x2="22" y2="90" stroke="#1a3a5c" stroke-width="1.5"/>
  <line x1="22" y1="90" x2="28" y2="102" stroke="#1a3a5c" stroke-width="1.5"/>
  <line x1="28" y1="90" x2="22" y2="102" stroke="#1a3a5c" stroke-width="1.5"/>
  <!-- Crane boom (horizontal) -->
  <rect x="16" y="18" width="80" height="5" rx="1" fill="#1a3a5c"/>
  <!-- Boom diagonals -->
  <line x1="28" y1="18" x2="38" y2="23" stroke="#1a3a5c" stroke-width="1.2"/>
  <line x1="38" y1="18" x2="48" y2="23" stroke="#1a3a5c" stroke-width="1.2"/>
  <line x1="48" y1="18" x2="58" y2="23" stroke="#1a3a5c" stroke-width="1.2"/>
  <line x1="58" y1="18" x2="68" y2="23" stroke="#1a3a5c" stroke-width="1.2"/>
  <line x1="68" y1="18" x2="78" y2="23" stroke="#1a3a5c" stroke-width="1.2"/>
  <line x1="78" y1="18" x2="88" y2="23" stroke="#1a3a5c" stroke-width="1.2"/>
  <!-- Counter-jib -->
  <rect x="8" y="18" width="14" height="5" rx="1" fill="#1a3a5c"/>
  <!-- Counterweight -->
  <rect x="8" y="23" width="10" height="8" rx="1" fill="#c9a55a"/>
  <rect x="8" y="23" width="10" height="8" rx="1" fill="#c9a55a" stroke="#9e8040" stroke-width="0.5"/>
  <!-- Crane cable -->
  <line x1="90" y1="23" x2="90" y2="40" stroke="#1a3a5c" stroke-width="1.8"/>
  <!-- Hook -->
  <circle cx="90" cy="42" r="3" fill="none" stroke="#1a3a5c" stroke-width="2"/>
  <!-- Concrete beams (hanging from crane) -->
  <rect x="78" y="46" width="24" height="6" rx="1" fill="#8a9bae"/>
  <rect x="78" y="53" width="24" height="6" rx="1" fill="#a0b0c0"/>
  <rect x="78" y="46" width="24" height="6" rx="1" stroke="#6a7b8e" stroke-width="0.5" fill="none"/>
  <rect x="78" y="53" width="24" height="6" rx="1" stroke="#6a7b8e" stroke-width="0.5" fill="none"/>
  <!-- I-beam profile lines -->
  <line x1="80" y1="49" x2="100" y2="49" stroke="#6a7b8e" stroke-width="0.5"/>
  <line x1="80" y1="56" x2="100" y2="56" stroke="#6a7b8e" stroke-width="0.5"/>
  <!-- Building base (lower) -->
  <rect x="32" y="68" width="74" height="44" rx="2" fill="#c9a55a"/>
  <rect x="32" y="68" width="74" height="44" rx="2" stroke="#9e8040" stroke-width="0.8" fill="none"/>
  <!-- Building upper -->
  <rect x="42" y="42" width="54" height="26" rx="2" fill="#b0bec5"/>
  <rect x="42" y="42" width="54" height="26" rx="2" stroke="#78909c" stroke-width="0.8" fill="none"/>
  <!-- Building top structures (pillars) -->
  <rect x="56" y="32" width="4" height="10" fill="#90a4ae"/>
  <rect x="64" y="28" width="4" height="14" fill="#90a4ae"/>
  <rect x="72" y="34" width="4" height="8" fill="#90a4ae"/>
  <!-- Windows on upper building -->
  <rect x="46" y="46" width="8" height="8" rx="1" fill="#1a3a5c"/>
  <rect x="58" y="46" width="8" height="8" rx="1" fill="#1a3a5c"/>
  <rect x="70" y="46" width="8" height="8" rx="1" fill="#1a3a5c"/>
  <rect x="82" y="46" width="8" height="8" rx="1" fill="#1a3a5c"/>
  <rect x="46" y="57" width="8" height="8" rx="1" fill="#1a3a5c"/>
  <rect x="58" y="57" width="8" height="8" rx="1" fill="#1a3a5c"/>
  <rect x="70" y="57" width="8" height="8" rx="1" fill="#1a3a5c"/>
  <rect x="82" y="57" width="8" height="8" rx="1" fill="#1a3a5c"/>
  <!-- Windows on lower building -->
  <rect x="36" y="72" width="8" height="8" rx="1" fill="#1a3a5c"/>
  <rect x="48" y="72" width="8" height="8" rx="1" fill="#1a3a5c"/>
  <rect x="60" y="72" width="8" height="8" rx="1" fill="#1a3a5c"/>
  <rect x="72" y="72" width="8" height="8" rx="1" fill="#1a3a5c"/>
  <rect x="84" y="72" width="8" height="8" rx="1" fill="#1a3a5c"/>
  <rect x="96" y="72" width="8" height="8" rx="1" fill="#1a3a5c"/>
  <rect x="36" y="84" width="8" height="8" rx="1" fill="#1a3a5c"/>
  <rect x="48" y="84" width="8" height="8" rx="1" fill="#1a3a5c"/>
  <rect x="60" y="84" width="8" height="8" rx="1" fill="#1a3a5c"/>
  <rect x="72" y="84" width="8" height="8" rx="1" fill="#1a3a5c"/>
  <rect x="84" y="84" width="8" height="8" rx="1" fill="#1a3a5c"/>
  <rect x="96" y="84" width="8" height="8" rx="1" fill="#1a3a5c"/>
  <rect x="36" y="96" width="8" height="8" rx="1" fill="#1a3a5c"/>
  <rect x="48" y="96" width="8" height="8" rx="1" fill="#1a3a5c"/>
  <rect x="60" y="96" width="8" height="8" rx="1" fill="#1a3a5c"/>
  <rect x="72" y="96" width="8" height="8" rx="1" fill="#1a3a5c"/>
  <rect x="84" y="96" width="8" height="8" rx="1" fill="#1a3a5c"/>
  <rect x="96" y="96" width="8" height="8" rx="1" fill="#1a3a5c"/>
  <!-- Crane base -->
  <rect x="16" y="108" width="18" height="4" rx="1" fill="#1a3a5c"/>
</svg>